<svg xmlns="http://www.w3.org/2000/svg" width="1440" height="900" viewBox="0 0 1440 900" role="img" aria-labelledby="title desc">
  <title id="title">LocalForge standalone desktop agent prototype</title>
  <desc id="desc">A dark standalone desktop window with a project tree and changed files on the left, read-only code and command output in the center, and an agent task timeline with command approval on the right.</desc>
  <defs>
    <style>
      .ui { font-family: "Segoe UI Variable Text", Inter, "Segoe UI", Arial, sans-serif; fill: #f2f3f7; }
      .mono { font-family: "Cascadia Code", Consolas, monospace; fill: #cbd2da; }
      .muted { fill: #9ba1ae; }
      .faint { fill: #676e7d; }
      .tiny { font-size: 10px; }
      .small { font-size: 12px; }
      .body { font-size: 14px; }
      .heading { font-size: 15px; font-weight: 600; }
      .title { font-size: 18px; font-weight: 600; }
      .rule { stroke: #252a37; stroke-width: 1; }
      .code { font-size: 12px; }
      [fill="#0b0d10"] { fill: #0b0c11; }
      [fill="#0e1115"], [fill="#111419"] { fill: #11131a; }
      [fill="#161a20"] { fill: #171a23; }
      [fill="#1c2129"] { fill: #1d2130; }
      [fill="#0c0f13"], [fill="#090b0e"] { fill: #0d0f15; }
      [fill="#d9f99d"] { fill: #aebcff; }
      [fill="#18200d"] { fill: #15182b; }
      [stroke="#3a424d"] { stroke: #353b4b; }
    </style>
  </defs>

  <rect width="1440" height="900" rx="12" fill="#0b0d10"/>
  <rect x="1" y="1" width="1438" height="898" rx="11" fill="none" stroke="#3a424d"/>

  <!-- Top bar -->
  <rect x="1" y="1" width="1438" height="58" rx="11" fill="#0e1115"/>
  <rect x="1" y="47" width="1438" height="12" fill="#0e1115"/>
  <line x1="0" y1="58" x2="1440" y2="58" class="rule"/>
  <rect x="16" y="14" width="30" height="30" rx="6" fill="#d9f99d"/>
  <text x="31" y="34" text-anchor="middle" font-size="11" font-weight="700" fill="#18200d" font-family="Consolas, monospace">LF</text>
  <text x="57" y="33" class="ui body" font-weight="600">LocalForge</text>
  <text x="146" y="32" class="ui faint tiny" letter-spacing="1.4">DESKTOP AGENT</text>
  <rect x="286" y="13" width="90" height="32" rx="6" fill="#161a20" stroke="#3a424d"/>
  <text x="331" y="34" text-anchor="middle" class="ui small">打开项目</text>
  <text x="390" y="27" class="ui small" font-weight="600">sample-app</text>
  <text x="390" y="42" class="ui muted tiny">C:\projects\sample-app</text>
  <circle cx="1242" cy="29" r="4" fill="#d9f99d"/>
  <text x="1254" y="33" class="ui muted small">gpt-coding-model</text>
  <text x="1380" y="33" class="ui small">设置</text>

  <!-- Left project panel -->
  <rect x="1" y="59" width="270" height="840" fill="#111419"/>
  <line x1="270" y1="59" x2="270" y2="900" class="rule"/>
  <text x="14" y="88" class="ui heading">项目结构</text>
  <text x="242" y="88" text-anchor="end" class="ui muted small">刷新</text>
  <text x="17" y="120" class="ui muted small">⌄  src</text>
  <text x="37" y="148" class="ui small">⌄  agent</text>
  <rect x="29" y="158" width="228" height="28" rx="4" fill="#1c2129"/>
  <text x="53" y="177" class="ui small">agentLoop.ts</text>
  <text x="53" y="205" class="ui muted small">changeTracker.ts</text>
  <text x="37" y="233" class="ui small">›  desktop</text>
  <text x="37" y="261" class="ui small">›  renderer</text>
  <text x="37" y="289" class="ui small">›  tools</text>
  <text x="17" y="317" class="ui muted small">⌄  tests</text>
  <text x="37" y="345" class="ui small">agentLoop.test.ts</text>
  <text x="37" y="373" class="ui small">workspaceTools.test.ts</text>
  <text x="17" y="401" class="ui small">package.json</text>
  <line x1="0" y1="620" x2="270" y2="620" class="rule"/>
  <text x="14" y="649" class="ui heading">本次变更</text>
  <rect x="233" y="634" width="24" height="20" rx="10" fill="#1c2129"/>
  <text x="245" y="648" text-anchor="middle" class="ui muted tiny">2</text>
  <rect x="10" y="669" width="250" height="32" rx="4" fill="#1c2129"/>
  <rect x="18" y="676" width="18" height="18" rx="4" fill="#25351d"/>
  <text x="27" y="689" text-anchor="middle" font-size="9" fill="#d9f99d" font-family="Consolas, monospace">M</text>
  <text x="45" y="690" class="ui small">src/agent/agentLoop.ts</text>
  <rect x="18" y="710" width="18" height="18" rx="4" fill="#25351d"/>
  <text x="27" y="723" text-anchor="middle" font-size="9" fill="#d9f99d" font-family="Consolas, monospace">M</text>
  <text x="45" y="724" class="ui muted small">tests/agentLoop.test.ts</text>

  <!-- Center preview -->
  <rect x="271" y="59" width="779" height="840" fill="#0c0f13"/>
  <rect x="271" y="59" width="779" height="43" fill="#111419"/>
  <line x1="271" y1="102" x2="1050" y2="102" class="rule"/>
  <text x="286" y="85" class="mono small">src/agent/agentLoop.ts</text>
  <text x="465" y="85" class="ui muted tiny">TypeScript · 4.2 KB · 只读</text>
  <text x="1032" y="85" text-anchor="end" class="ui muted tiny" letter-spacing="1">FILE</text>

  <g class="mono code">
    <text x="288" y="134" class="faint">1</text><text x="322" y="134" fill="#8ab4f8">export interface</text><text x="430" y="134"> AgentRunOptions {</text>
    <text x="288" y="156" class="faint">2</text><text x="338" y="156">task: string;</text>
    <text x="288" y="178" class="faint">3</text><text x="338" y="178">systemPrompt: string;</text>
    <text x="288" y="200" class="faint">4</text><text x="338" y="200">maxSteps: number;</text>
    <text x="288" y="222" class="faint">5</text><text x="338" y="222">signal: AbortSignal;</text>
    <text x="288" y="244" class="faint">6</text><text x="322" y="244">}</text>
    <text x="288" y="288" class="faint">8</text><text x="322" y="288" fill="#8ab4f8">export class</text><text x="402" y="288"> AgentLoop {</text>
    <text x="282" y="310" class="faint">9</text><text x="338" y="310" fill="#d9f99d">public async</text><text x="421" y="310"> run(options: AgentRunOptions) {</text>
    <rect x="317" y="321" width="645" height="24" fill="#151b18"/>
    <text x="276" y="339" class="faint">10</text><text x="354" y="339">options.onEvent({ type: "run_started", task: options.task });</text>
    <text x="276" y="361" class="faint">11</text><text x="354" y="361" fill="#8ab4f8">for</text><text x="376" y="361"> (let step = 1; step &lt;= options.maxSteps; step += 1) {</text>
    <text x="276" y="383" class="faint">12</text><text x="370" y="383">const assistant = await this.model.complete(...);</text>
    <text x="276" y="405" class="faint">13</text><text x="370" y="405">const calls = assistant.tool_calls ?? [];</text>
    <text x="276" y="427" class="faint">14</text><text x="370" y="427" fill="#8ab4f8">if</text><text x="388" y="427"> (calls.length === 0) return completed(...);</text>
    <text x="276" y="449" class="faint">15</text><text x="370" y="449">await this.registry.execute(call.function.name, ...);</text>
    <text x="276" y="471" class="faint">16</text><text x="354" y="471">}</text>
    <text x="276" y="493" class="faint">17</text><text x="338" y="493">}</text>
    <text x="276" y="515" class="faint">18</text><text x="322" y="515">}</text>
  </g>

  <!-- Output -->
  <line x1="271" y1="682" x2="1050" y2="682" class="rule"/>
  <rect x="271" y="683" width="779" height="216" fill="#090b0e"/>
  <text x="286" y="708" class="ui small" font-weight="600">运行输出</text>
  <text x="1033" y="708" text-anchor="end" class="ui muted small">清空</text>
  <line x1="271" y1="720" x2="1050" y2="720" stroke="#1c2128"/>
  <text x="286" y="750" class="mono small" fill="#d9f99d">$ pnpm test</text>
  <text x="286" y="776" class="mono small">✓ agentLoop.test.ts (5 tests)</text>
  <text x="286" y="800" class="mono small">✓ workspaceTools.test.ts (4 tests)</text>
  <text x="286" y="832" class="mono small">Test Files  2 passed (2)</text>
  <text x="286" y="856" class="mono small">Tests       9 passed (9)</text>

  <!-- Right Agent panel -->
  <rect x="1051" y="59" width="388" height="840" fill="#111419"/>
  <line x1="1050" y1="59" x2="1050" y2="900" class="rule"/>
  <text x="1066" y="83" class="ui heading">Agent 任务</text>
  <circle cx="1069" cy="96" r="4" fill="#d9f99d"/>
  <text x="1080" y="100" class="ui muted tiny">运行中 · 第 4 步</text>
  <rect x="1315" y="73" width="43" height="28" rx="6" fill="#1c2129"/>
  <text x="1336" y="92" text-anchor="middle" class="ui tiny">历史</text>
  <rect x="1364" y="73" width="58" height="28" rx="6" fill="#392022" stroke="#613638"/>
  <text x="1393" y="92" text-anchor="middle" fill="#f59a9a" font-size="11" font-family="Inter, Segoe UI, sans-serif">停止</text>

  <line x1="1073" y1="132" x2="1073" y2="522" stroke="#2a3039"/>
  <circle cx="1073" cy="147" r="8" fill="#d9f99d"/>
  <text x="1073" y="151" text-anchor="middle" font-size="9" fill="#18200d">✓</text>
  <text x="1095" y="148" class="ui small" font-weight="600">查看项目结构</text>
  <text x="1095" y="168" class="ui muted small">找到源文件与相关测试</text>

  <circle cx="1073" cy="211" r="8" fill="#d9f99d"/>
  <text x="1073" y="215" text-anchor="middle" font-size="9" fill="#18200d">✓</text>
  <text x="1095" y="212" class="ui small" font-weight="600">修改文件</text>
  <text x="1095" y="232" class="ui muted small">src/agent/agentLoop.ts</text>

  <circle cx="1073" cy="275" r="8" fill="#d9f99d"/>
  <text x="1073" y="279" text-anchor="middle" font-size="9" fill="#18200d">✓</text>
  <text x="1095" y="276" class="ui small" font-weight="600">补充测试</text>
  <text x="1095" y="296" class="ui muted small">tests/agentLoop.test.ts</text>

  <circle cx="1073" cy="339" r="8" fill="#111419" stroke="#d9f99d"/>
  <text x="1073" y="343" text-anchor="middle" font-size="11" fill="#d9f99d">·</text>
  <text x="1095" y="340" class="ui small" font-weight="600">等待命令批准</text>

  <!-- Approval card -->
  <rect x="1095" y="357" width="320" height="166" rx="7" fill="#161a20" stroke="#3a424d"/>
  <text x="1110" y="380" fill="#f59a9a" font-size="10" letter-spacing="1" font-family="Inter, Segoe UI, sans-serif">需要你的批准</text>
  <text x="1110" y="403" class="ui small" font-weight="600">运行相关单元测试</text>
  <rect x="1110" y="416" width="290" height="38" rx="5" fill="#090b0e"/>
  <text x="1122" y="440" class="mono small" fill="#d9f99d">pnpm test -- agentLoop</text>
  <text x="1110" y="473" class="ui faint tiny">C:\projects\sample-app</text>
  <rect x="1242" y="486" width="72" height="27" rx="5" fill="#1c2129" stroke="#3a424d"/>
  <text x="1278" y="504" text-anchor="middle" class="ui tiny">拒绝</text>
  <rect x="1322" y="486" width="78" height="27" rx="5" fill="#d9f99d"/>
  <text x="1361" y="504" text-anchor="middle" font-size="10" fill="#18200d" font-family="Inter, Segoe UI, sans-serif">允许执行</text>

  <!-- Composer -->
  <line x1="1050" y1="700" x2="1440" y2="700" class="rule"/>
  <text x="1066" y="728" class="ui small" font-weight="600">给 Agent 一个任务</text>
  <rect x="1066" y="740" width="356" height="91" rx="6" fill="#161a20" stroke="#3a424d"/>
  <text x="1078" y="766" class="ui muted small">检查配置模块，修复失败测试，</text>
  <text x="1078" y="787" class="ui muted small">并运行最小相关测试。</text>
  <text x="1066" y="856" class="ui muted tiny">上下文：src/agent/agentLoop.ts</text>
  <rect x="1338" y="842" width="84" height="34" rx="6" fill="#d9f99d"/>
  <text x="1380" y="864" text-anchor="middle" font-size="11" fill="#18200d" font-family="Inter, Segoe UI, sans-serif">开始任务</text>
</svg>
